<svg id="Layer_1" data-name="Layer 1" xmlns="http://www.w3.org/2000/svg" viewBox="0 0 1943 1586.22"><defs><style>.cls-1{fill:#fff;}</style></defs><path class="cls-1" d="M1982,1033a138,138,0,0,0-49.45-106L1287.48,281.91a138.35,138.35,0,0,0-195.66,0h0a138.36,138.36,0,0,0,0,195.67l417.06,417.05H177.35A138.36,138.36,0,0,0,39,1033h0a138.35,138.35,0,0,0,138.35,138.35H1511.9l-420.08,420.08a138.36,138.36,0,0,0,0,195.67h0a138.35,138.35,0,0,0,195.66,0l653.27-653.28A145.88,145.88,0,0,0,1982,1033Z" transform="translate(-39 -241.39)"/></svg>