<?xml version="1.0" encoding="utf-8"?>
<!-- Generator: Adobe Illustrator 24.2.1, SVG Export Plug-In . SVG Version: 6.00 Build 0)  -->
<svg version="1.1" id="Layer_1" xmlns="http://www.w3.org/2000/svg" xmlns:xlink="http://www.w3.org/1999/xlink" x="0px" y="0px"
	 viewBox="0 0 284 276" style="enable-background:new 0 0 284 276;" xml:space="preserve">
<style type="text/css">
	.st0{fill:#353535;}
</style>
<rect x="201.8" y="-54.67" style="fill:none;" width="2.8" height="0"/>
<g>
	<g>
		<path class="st0" d="M242.79,220.73c-12.4-15.26-24.81-30.52-37.21-45.79c-11.74-14.44-23.43-28.97-36.51-42.23
			c-24.23-24.58-52.5-44.95-81.59-63.35c-16.57-10.47-33.5-20.35-50.44-30.22C23.78,31.41,11.78,51.98,25.03,59.7
			c29.28,17.06,58.62,34.18,85.93,54.31c28.13,20.72,51.51,45.48,73.5,72.5c13.84,17.01,27.66,34.04,41.5,51.06
			c4.06,4.99,12.62,4.22,16.84,0C247.73,232.63,246.86,225.73,242.79,220.73L242.79,220.73z"/>
	</g>
</g>
<g>
	<g>
		<path class="st0" d="M34.91,124.37c-0.73-17.17-0.64-34.35,0.38-51.51c0.24-3.96,0.52-7.91,0.85-11.86
			c0.19-2.3,0.31-4.63,0.63-6.91c0.23-1.67,1.73-3.84-1.83,0.44c-0.59,0.14-1.19,0.29-1.78,0.43c1.03-0.07,2.06-0.07,3.09,0
			c1.83,0.08,3.68,0.3,5.5,0.46c4.31,0.38,8.62,0.76,12.93,1.13c34.16,2.99,68.32,5.99,102.48,8.98
			c6.41,0.56,11.91-5.87,11.91-11.91c0-6.91-5.47-11.34-11.91-11.91c-38.14-3.34-76.28-6.68-114.42-10.03
			c-9.77-0.86-20.32-1-26.18,8.51c-4.62,7.52-4.08,18.17-4.69,26.71c-1.37,19.12-1.59,38.29-0.77,57.44
			c0.27,6.43,5.28,11.91,11.91,11.91C29.25,136.27,35.19,130.82,34.91,124.37L34.91,124.37z"/>
	</g>
</g>
</svg>
