<?xml version="1.0" encoding="utf-8"?>
<!-- Generator: Adobe Illustrator 24.2.1, SVG Export Plug-In . SVG Version: 6.00 Build 0)  -->
<svg version="1.1" id="Layer_1" xmlns="http://www.w3.org/2000/svg" xmlns:xlink="http://www.w3.org/1999/xlink" x="0px" y="0px"
	 viewBox="0 0 2000 2000" style="enable-background:new 0 0 2000 2000;" xml:space="preserve">
<style type="text/css">
	.st0{fill:#353535;}
</style>
<g>
	<g>
		<path class="st0" d="M383.48,462.97c8.58-7.54,17.33-14.87,26.35-21.88c-3.8,2.95,0.03-0.01,0.69-0.5
			c2.28-1.69,4.54-3.4,6.83-5.08c5.33-3.9,10.72-7.72,16.18-11.43c17.86-12.17,36.39-23.35,55.44-33.56
			c9.09-4.87,18.3-9.53,27.61-13.97c5.08-2.42,10.18-4.78,15.32-7.08c2.57-1.15,5.15-2.26,7.72-3.4c3.25-1.39,3.45-1.48,0.6-0.28
			c1.73-0.72,3.46-1.44,5.2-2.15c19.98-8.18,40.32-15.47,60.92-21.94c42.11-13.23,85.26-23.04,128.82-30.11
			c4.62-0.75,9.24-1.47,13.87-2.16c2.77-0.41,5.55-0.8,8.33-1.21c9.18-1.35-6.07,0.75,3.13-0.43c11.04-1.42,22.09-2.71,33.16-3.84
			c21.14-2.14,42.34-3.7,63.56-4.7c43.35-2.04,86.8-1.7,130.12,0.95c22.13,1.35,44.22,3.31,66.24,5.85
			c4.59,0.53,9.18,1.09,13.76,1.67c0.73,0.09,9.85,1.3,3.02,0.38c2.75,0.37,5.49,0.76,8.24,1.15c10.99,1.57,21.95,3.29,32.89,5.15
			c85.51,14.57,169.49,38.06,250.23,69.77c4.77,1.87,9.52,3.77,14.27,5.7c2.59,1.05,5.17,2.11,7.75,3.18
			c0.46,0.19,8.97,3.78,3.14,1.3c10.3,4.37,20.54,8.88,30.72,13.53c19.54,8.91,38.86,18.32,57.92,28.21
			c39.1,20.28,77.16,42.58,113.95,66.8c18.08,11.9,35.85,24.27,53.3,37.08c4.56,3.35,9.1,6.73,13.61,10.14
			c2.26,1.71,4.51,3.43,6.76,5.14c7.41,5.65-4.44-3.52,2.89,2.24c8.92,7.02,17.79,14.08,26.54,21.3
			c32.58,26.89,63.83,55.65,91.13,87.96c3.23,3.82,6.36,7.72,9.51,11.61c5.65,6.97-3.36-4.65,1.98,2.55
			c1.62,2.19,3.26,4.36,4.86,6.57c6.38,8.8,12.43,17.85,18.06,27.15c5.16,8.52,9.97,17.25,14.38,26.18
			c2.41,4.88,4.7,9.83,6.86,14.82c-2.24-5.19,0.11,0.36,0.63,1.66c1.18,2.97,2.31,5.96,3.39,8.96c3.48,9.67,6.46,19.52,8.91,29.5
			c1.42,5.79,2.66,11.61,3.73,17.48c0.53,2.92,0.99,5.84,1.46,8.77c0.53,3.63,0.57,3.9,0.13,0.82c0.24,1.95,0.46,3.91,0.66,5.87
			c2.32,22.53,2.21,45.26,0.11,67.8c-0.27,2.95-0.58,5.9-0.92,8.85c-0.04,0.37-1.4,10.03-0.47,3.82c-0.74,4.92-1.51,9.83-2.4,14.72
			c-2.13,11.81-4.74,23.54-7.73,35.16c-6.06,23.47-13.75,46.51-22.57,69.08c-1.84,4.72-3.75,9.41-5.68,14.1
			c-3.79,9.19,2.29-5.07-1.71,4.02c-1.22,2.78-2.43,5.56-3.66,8.33c-4.92,11.03-10.08,21.96-15.43,32.79
			c-9.9,20.04-20.46,39.76-31.44,59.23c-21.05,37.36-43.84,73.75-68.51,108.83c-6.08,8.64-12.27,17.2-18.57,25.68
			c-3.01,4.05-6.06,8.06-9.11,12.08c-5.48,7.23,3.57-4.5-2.03,2.63c-2.26,2.88-4.52,5.76-6.8,8.63
			c-13.07,16.41-26.6,32.46-40.61,48.08c-28.36,31.62-58.69,61.5-91.04,89.04c-7.52,6.4-15.14,12.67-22.87,18.81
			c-2.11,1.67-4.22,3.33-6.34,4.98c5.08-3.96-1.95,1.48-2.45,1.86c-4.28,3.24-8.59,6.44-12.93,9.6
			c-16.98,12.35-34.44,24.05-52.35,35c-78.62,48.08-158.51,78.18-250.5,96.89c-10.61,2.16-21.26,4.12-31.94,5.89
			c-5.83,0.96-11.66,1.87-17.51,2.72c-0.4,0.06-10.03,1.4-3.73,0.55c-2.93,0.39-5.86,0.76-8.79,1.12
			c-23.46,2.87-47.03,4.84-70.64,5.94c-46.26,2.16-92.67,0.99-138.78-3.25c-11.32-1.04-22.62-2.26-33.91-3.66
			c-3.08-0.38-6.15-0.77-9.22-1.18c1.36,0.18,4.95,0.7-1.24-0.18c-7.16-1.02-14.31-2.08-21.45-3.22
			c-23.48-3.75-46.84-8.22-70.05-13.35c-47.6-10.52-94.58-23.8-140.79-39.3c-22.71-7.62-45.25-15.78-67.59-24.42
			c-24.42-9.44-43.91-17.51-65.22-26.85c-42.4-18.59-84.66-38.2-125.18-60.65c-18.03-9.99-35.66-20.74-52.39-32.79
			c-2.18-1.57-4.32-3.17-6.48-4.76c-7.1-5.23,4.42,3.73-2.4-1.86c-3.45-2.83-6.91-5.62-10.28-8.54c-8.09-7-15.83-14.39-23.11-22.23
			c-3.65-3.93-7.19-7.97-10.6-12.11c-0.4-0.48-5.8-7.53-1.97-2.41c-1.62-2.17-3.22-4.36-4.78-6.58
			c-6.53-9.32-12.37-19.11-17.53-29.26c-2.2-4.32-4.23-8.71-6.22-13.12c-3.88-8.6,1.83,5.28-1.46-3.58c-1.02-2.74-2.1-5.45-3.09-8.2
			c-3.99-11.05-7.35-22.33-10.2-33.73c-2.64-10.54-4.83-21.19-6.67-31.89c-0.5-2.93-0.98-5.86-1.43-8.8
			c-0.05-0.36-1.46-10.04-0.61-3.8c-0.8-5.88-1.46-11.79-2.06-17.7c-2.32-22.67-3.55-45.47-3.82-68.26
			c-0.25-21.62,0.39-43.25,1.89-64.82c0.72-10.3,1.63-20.6,2.74-30.87c0.6-5.6,1.29-11.19,1.98-16.78c1.15-9.24-0.93,6.02,0.44-3.19
			c0.55-3.71,1.08-7.43,1.66-11.14c6.64-42.65,16.56-84.77,29.47-125.96c6.73-21.47,14.27-42.68,22.59-63.59
			c1.73-4.35,3.51-8.68,5.3-13.01c3.53-8.56-2.36,5.3,1.36-3.18c1.13-2.57,2.23-5.15,3.37-7.72c4.53-10.27,9.26-20.46,14.17-30.55
			c19.15-39.39,41.12-77.41,65.71-113.65c5.72-8.44,11.59-16.78,17.6-25.01c3.27-4.48,6.58-8.94,9.93-13.36
			c-0.28,0.37,5.24-6.84,2.71-3.56c-1.22,1.57-0.87,1.13,1.05-1.34c1.14-1.45,2.28-2.9,3.43-4.35
			c13.78-17.38,28.22-34.23,43.24-50.55c28.74-31.2,59.6-60.42,92.24-87.52c4.24-3.52,8.5-6.99,12.8-10.44
			c2.15-1.72,4.3-3.43,6.46-5.13c0.4-0.32,7.56-5.9,2.6-2.07c8.69-6.72,17.52-13.26,26.44-19.67c17.07-12.27,34.53-24,52.32-35.18
			c36.28-22.8,73.97-43.32,112.74-61.55c9.06-4.26,18.17-8.39,27.34-12.4c2.5-1.09,5.01-2.16,7.51-3.25
			c8.28-3.59-5.46,2.22,2.88-1.22c5.04-2.08,10.08-4.15,15.15-6.18c20.23-8.07,40.7-15.55,61.38-22.43
			c38.62-12.85,77.92-23.55,117.68-32.24c15.35-3.35,25.76-22.06,20.95-36.9c-5.23-16.15-20.46-24.55-36.9-20.95
			C786.39,237.72,620.25,316.28,483.2,431.99C344.05,549.47,240.42,706.79,188.13,881.33c-26.3,87.79-39.46,180.38-36.73,272.05
			c2.88,96.61,20.77,197.12,89.56,269.7c30.62,32.31,68.48,57.58,107.32,78.91c41.65,22.87,85.01,42.93,128.57,61.86
			c93,40.4,189.02,74.03,288.25,95.44c189.74,40.94,392.51,37.78,574.53-34.6c86.81-34.52,165.85-83.21,236.58-144.18
			c67.44-58.14,125.8-126.33,176.61-199.29c53.02-76.14,99.89-158.64,132.58-245.62c34.21-91.05,49.45-194.47,14.88-287.82
			c-31.84-85.99-95.65-153.91-165.29-211.38c-70.89-58.5-147.59-109.78-229.2-152.1c-161.42-83.71-339.65-133.58-521.23-144.26
			c-90.49-5.32-181.51-0.39-270.9,14.61c-90.33,15.16-179.37,42.63-259.92,86.74c-40.35,22.1-78.14,48.78-112.69,79.15
			c-11.82,10.4-11.42,31.95,0,42.43C353.66,474.54,370.87,474.05,383.48,462.97L383.48,462.97z"/>
	</g>
</g>
</svg>
