<svg id="Layer_1" data-name="Layer 1" xmlns="http://www.w3.org/2000/svg" viewBox="0 0 2000 1261.36"><defs><style>.cls-1{fill:#fff;}</style></defs><path class="cls-1" d="M250.91,1023.85l328.7-328.7a105.32,105.32,0,0,0,0-149h0a105.33,105.33,0,0,0-148.95,0L30.84,946a105.34,105.34,0,0,0-11.07,135.92,105.17,105.17,0,0,0,20.75,29.44l399.82,399.81a105.31,105.31,0,0,0,149,0h0a105.31,105.31,0,0,0,0-149Z" transform="translate(0 -372.19)"/><path class="cls-1" d="M1980.23,963.61a105.27,105.27,0,0,0-20.75-29.43L1559.66,534.36a105.33,105.33,0,0,0-149,0h0a105.32,105.32,0,0,0,0,149l338.38,338.38-328.7,328.7a105.31,105.31,0,0,0,0,148.95h0a105.31,105.31,0,0,0,148.95,0l399.82-399.81A105.35,105.35,0,0,0,1980.23,963.61Z" transform="translate(0 -372.19)"/><path class="cls-1" d="M1248.53,380h0a107.56,107.56,0,0,0-140,59.52l-422,1046.2a107.55,107.55,0,0,0,59.52,140h0a107.54,107.54,0,0,0,140-59.51L1308.05,520A107.56,107.56,0,0,0,1248.53,380Z" transform="translate(0 -372.19)"/></svg>